<svg xmlns="http://www.w3.org/2000/svg" viewBox="0 0 200 200">
  <defs><linearGradient id="gem" x1="0.15" y1="0" x2="0.7" y2="1">
    <stop offset="0" stop-color="#e7b79a"/><stop offset="0.45" stop-color="#c9805f"/><stop offset="1" stop-color="#7a3f57"/>
  </linearGradient></defs>
  <path d="M 141.71,18.00 A 92.0 92.0 0 1 0 141.71,182.00 A 82.0 82.0 0 1 1 141.71,18.00 Z" fill="url(#gem)"/>
  <path d="M 141.71,18.00 A 92.0 92.0 0 1 0 141.71,182.00 A 82.0 82.0 0 1 1 141.71,18.00 Z" fill="none" stroke="#f3d9c9" stroke-opacity="0.75" stroke-width="3.4" stroke-linejoin="round"/>
  <path d="M 141.71,18.00 A 92.0 92.0 0 1 0 141.71,182.00 A 82.0 82.0 0 1 1 141.71,18.00 Z" fill="none" stroke="#5e2f43" stroke-width="1.5" stroke-linejoin="round"/>
  <path d="M 150 49.0 C 150.5 52.6 151.4 53.5 155.0 54 C 151.4 54.5 150.5 55.4 150 59.0 C 149.5 55.4 148.6 54.5 145.0 54 C 148.6 53.5 149.5 52.6 150 49.0 Z" fill="#c9805f"/><path d="M 171 80.4 C 171.36 82.992 172.008 83.64 174.6 84 C 172.008 84.36 171.36 85.008 171 87.6 C 170.64 85.008 169.992 84.36 167.4 84 C 169.992 83.64 170.64 82.992 171 80.4 Z" fill="#c9805f"/><path d="M 128 89.8 C 128.42 92.824 129.176 93.58 132.2 94 C 129.176 94.42 128.42 95.176 128 98.2 C 127.58 95.176 126.824 94.42 123.8 94 C 126.824 93.58 127.58 92.824 128 89.8 Z" fill="#c9805f"/><path d="M 163 115.7 C 163.43 118.796 164.204 119.57 167.3 120 C 164.204 120.43 163.43 121.204 163 124.3 C 162.57 121.204 161.796 120.43 158.7 120 C 161.796 119.57 162.57 118.796 163 115.7 Z" fill="#c9805f"/><path d="M 134 146.2 C 134.38 148.936 135.064 149.62 137.8 150 C 135.064 150.38 134.38 151.064 134 153.8 C 133.62 151.064 132.936 150.38 130.2 150 C 132.936 149.62 133.62 148.936 134 146.2 Z" fill="#c9805f"/><path d="M 173 146.0 C 173.4 148.88 174.12 149.6 177.0 150 C 174.12 150.4 173.4 151.12 173 154.0 C 172.6 151.12 171.88 150.4 169.0 150 C 171.88 149.6 172.6 148.88 173 146.0 Z" fill="#c9805f"/>
</svg>